<svg width="22" height="36" viewBox="0 0 22 36" fill="none" xmlns="http://www.w3.org/2000/svg">
<g clip-path="url(#clip0_1_298)">
<path d="M15.3005 4.31512H4.10524C2.46971 4.31512 1.13851 5.64516 1.13851 7.27732V18.2308H0.848693C0.188584 18.2308 -0.346649 18.7647 -0.346649 19.4244V26.6632C-0.346649 27.3229 0.188584 27.8569 0.848693 27.8569H1.13851V29.1843C1.13851 30.8182 2.46977 32.1464 4.10524 32.1464H19.3808C21.0153 32.1464 22.3466 30.8181 22.3466 29.1843V11.3257L15.3005 4.31512ZM5.36297 24.8192C5.70609 24.8192 6.0865 24.7447 6.3107 24.6555L6.48188 25.5415C6.27323 25.6462 5.8031 25.7582 5.19172 25.7582C3.45334 25.7582 2.55811 24.6783 2.55811 23.2481C2.55811 21.5351 3.78172 20.5816 5.30342 20.5816C5.89288 20.5816 6.34029 20.7008 6.5416 20.8046L6.3107 21.706C6.07921 21.6087 5.75852 21.5196 5.35574 21.5196C4.45276 21.5196 3.75166 22.0636 3.75166 23.1808C3.75166 24.1861 4.34846 24.8192 5.36297 24.8192ZM19.3807 30.3323H4.10524C3.47196 30.3323 2.95621 29.8174 2.95621 29.1843V27.8569H17.1961C17.8564 27.8569 18.3917 27.3229 18.3917 26.6632V19.4244C18.3917 18.7647 17.8564 18.2308 17.1961 18.2308H2.95621V7.27732C2.95621 6.64587 3.47196 6.13097 4.10524 6.13097L14.6209 6.12006V10.0011C14.6209 11.1346 15.542 12.0553 16.6782 12.0553L20.4859 12.0444L20.5287 29.1843C20.5287 29.8174 20.0139 30.3323 19.3807 30.3323ZM8.48377 23.5756C7.64814 23.2854 7.10337 22.8233 7.10337 22.0936C7.10337 21.2365 7.81944 20.5816 9.00576 20.5816C9.5725 20.5816 9.99078 20.7007 10.2887 20.8345L10.0354 21.7507C9.83405 21.6542 9.4759 21.5122 8.98345 21.5122C8.491 21.5122 8.25229 21.7361 8.25229 21.9963C8.25229 22.3165 8.53563 22.4585 9.18481 22.704C10.0728 23.0316 10.4905 23.4938 10.4905 24.2016C10.4905 25.043 9.84128 25.7582 8.46134 25.7582C7.88685 25.7582 7.31971 25.609 7.03636 25.4524L7.26773 24.5145C7.5735 24.671 8.04364 24.8266 8.52834 24.8266C9.05045 24.8266 9.32651 24.6109 9.32651 24.2833C9.32657 23.9705 9.08786 23.7912 8.48377 23.5756ZM12.5143 23.5756C11.6788 23.2854 11.1339 22.8233 11.1339 22.0936C11.1339 21.2365 11.85 20.5816 13.0363 20.5816C13.6036 20.5816 14.0208 20.7007 14.3196 20.8345L14.066 21.7507C13.8645 21.6542 13.5065 21.5122 13.014 21.5122C12.5215 21.5122 12.2828 21.7361 12.2828 21.9963C12.2828 22.3165 12.5662 22.4585 13.2154 22.704C14.1033 23.0316 14.5212 23.4938 14.5212 24.2016C14.5212 25.043 13.872 25.7582 12.492 25.7582C11.9175 25.7582 11.3503 25.609 11.0669 25.4524L11.2984 24.5145C11.6041 24.671 12.0742 24.8266 12.5589 24.8266C13.081 24.8266 13.3571 24.6109 13.3571 24.2833C13.3571 23.9705 13.1183 23.7912 12.5143 23.5756Z" fill="#5A639C"/>
</g>
<defs>
<clipPath id="clip0_1_298">
<rect width="22" height="35.5385" fill="white" transform="translate(0 0.461548)"/>
</clipPath>
</defs>
</svg>
