<svg width="21" height="31" viewBox="0 0 21 31" fill="none" xmlns="http://www.w3.org/2000/svg">
<path d="M0.0703125 6.375C0.0703125 3.26953 2.53125 0.75 5.63672 0.75H15.3047C18.4102 0.75 20.8711 3.26953 20.8711 6.375C20.8711 8.36719 19.875 10.0664 18.3516 11.0625C19.875 12.1172 20.8711 13.8164 20.8711 15.8086C20.8711 18.8555 18.4102 21.375 15.3047 21.375H15.1875C13.7227 21.375 12.375 20.8477 11.3789 19.9102V25.125C11.3789 28.2305 8.80078 30.75 5.69531 30.75C2.58984 30.75 0.0703125 28.2891 0.0703125 25.1836C0.0703125 23.1914 1.06641 21.4922 2.58984 20.4961C1.06641 19.4414 0.0703125 17.7422 0.0703125 15.8086C0.0703125 13.8164 1.06641 12.1172 2.58984 11.0625C1.06641 10.0664 0.0703125 8.36719 0.0703125 6.375ZM9.5625 12H5.63672C3.58594 12 1.88672 13.6992 1.88672 15.8086C1.88672 17.8594 3.52734 19.5586 5.63672 19.5586H9.5625V12ZM11.3789 15.8086C11.3789 17.8594 13.0781 19.5586 15.1875 19.5586H15.3047C17.3555 19.5586 19.0547 17.8594 19.0547 15.8086C19.0547 13.6992 17.3555 12 15.3047 12H15.1875C13.0781 12 11.3789 13.6992 11.3789 15.8086ZM5.63672 21.375C3.52734 21.4336 1.88672 23.0742 1.88672 25.1836C1.88672 27.2344 3.58594 28.9336 5.69531 28.9336C7.80469 28.9336 9.5625 27.2344 9.5625 25.125V21.375H5.63672ZM5.63672 2.625C3.58594 2.625 1.88672 4.32422 1.88672 6.375C1.88672 8.48438 3.58594 10.1836 5.63672 10.1836H9.5625V2.625H5.63672ZM11.3789 10.1836H15.3047C17.3555 10.1836 19.0547 8.48438 19.0547 6.375C19.0547 4.32422 17.3555 2.625 15.3047 2.625H11.3789V10.1836Z" fill="#5A639C"/>
</svg>
