<svg width="30" height="30" viewBox="0 0 30 30" fill="none" xmlns="http://www.w3.org/2000/svg">
<path d="M28.4375 11.5625C29.125 14.25 29.1875 16.25 28.4375 18.375C27.8125 20.375 27.0625 21.75 25.125 21.75H15.125V22.5625H21.75V25.125C21.75 27.0625 20.125 28.0625 18.4375 28.5C15.9375 29.25 13.875 29.125 11.75 28.5C10 28 8.4375 26.9375 8.4375 25.125V18.75C8.4375 16.9375 9.9375 15.375 11.75 15.375H18.4375C20.6875 15.375 22.625 13.4375 22.625 11.125V8.1875H25.125C27.0625 8.1875 28 9.625 28.4375 11.5625ZM18.875 24.25C18.1875 24.25 17.625 24.8125 17.625 25.5625C17.625 26.25 18.1875 26.8125 18.875 26.8125C19.5625 26.8125 20.125 26.25 20.125 25.5625C20.125 24.875 19.5625 24.25 18.875 24.25ZM11.4375 14.5625C9.1875 14.5625 7.3125 16.5 7.3125 18.6875V21.75H5C3.0625 21.75 1.9375 20.3125 1.4375 18.375C0.8125 15.6875 0.8125 14.125 1.4375 11.5625C2 9.3125 3.6875 8.1875 5.625 8.1875H14.8125V7.3125H8.125V4.75C8.125 2.875 8.625 1.8125 11.4375 1.3125C13.4375 0.9375 15.875 0.9375 18.125 1.3125C19.9375 1.625 21.5 2.9375 21.5 4.75V11.125C21.5 13 20 14.5625 18.125 14.5625H11.4375ZM11.0625 5.625C11.75 5.625 12.3125 5.0625 12.3125 4.375C12.3125 3.625 11.75 3.0625 11.0625 3.0625C10.375 3.0625 9.8125 3.625 9.8125 4.375C9.8125 5.0625 10.375 5.625 11.0625 5.625Z" fill="#5A639C"/>
</svg>
